<svg xmlns="http://www.w3.org/2000/svg"><!-- Phosphor Icons, regular weight, MIT. See /ui-assets/NOTICES.txt. --><defs><symbol id="cactus" viewBox="0 0 256 256"><path d="M216,208H168V184h4a68.07,68.07,0,0,0,68-68,28,28,0,0,0-56,0,12,12,0,0,1-12,12h-4V56a40,40,0,0,0-80,0V88H84A12,12,0,0,1,72,76a28,28,0,0,0-56,0,68.07,68.07,0,0,0,68,68h4v64H40a8,8,0,0,0,0,16H216a8,8,0,0,0,0-16ZM96,128H84A52.06,52.06,0,0,1,32,76a12,12,0,0,1,24,0,28,28,0,0,0,28,28H96a8,8,0,0,0,8-8V56a24,24,0,0,1,48,0v80a8,8,0,0,0,8,8h12a28,28,0,0,0,28-28,12,12,0,0,1,24,0,52.06,52.06,0,0,1-52,52H160a8,8,0,0,0-8,8v32H104V136A8,8,0,0,0,96,128Z"/></symbol><symbol id="microphone-stage" viewBox="0 0 256 256"><path d="M168,16A72.07,72.07,0,0,0,96,88a73.29,73.29,0,0,0,.63,9.42L27.12,192.22A15.93,15.93,0,0,0,28.71,213L43,227.29a15.93,15.93,0,0,0,20.78,1.59l94.81-69.53A73.29,73.29,0,0,0,168,160a72,72,0,1,0,0-144Zm56,72a55.72,55.72,0,0,1-11.16,33.52L134.49,43.16A56,56,0,0,1,224,88ZM54.32,216,40,201.68,102.14,117A72.37,72.37,0,0,0,139,153.86ZM112,88a55.67,55.67,0,0,1,11.16-33.51l78.34,78.34A56,56,0,0,1,112,88Zm-2.35,58.34a8,8,0,0,1,0,11.31l-8,8a8,8,0,1,1-11.31-11.31l8-8A8,8,0,0,1,109.67,146.33Z"/></symbol><symbol id="music-notes" viewBox="0 0 256 256"><path d="M212.92,17.69a8,8,0,0,0-6.86-1.45l-128,32A8,8,0,0,0,72,56V166.08A36,36,0,1,0,88,196V110.25l112-28v51.83A36,36,0,1,0,216,164V24A8,8,0,0,0,212.92,17.69ZM52,216a20,20,0,1,1,20-20A20,20,0,0,1,52,216ZM88,93.75V62.25l112-28v31.5ZM180,184a20,20,0,1,1,20-20A20,20,0,0,1,180,184Z"/></symbol><symbol id="playlist" viewBox="0 0 256 256"><path d="M32,64a8,8,0,0,1,8-8H216a8,8,0,0,1,0,16H40A8,8,0,0,1,32,64Zm8,72H160a8,8,0,0,0,0-16H40a8,8,0,0,0,0,16Zm72,48H40a8,8,0,0,0,0,16h72a8,8,0,0,0,0-16Zm135.66-57.7a8,8,0,0,1-10,5.36L208,122.75V192a32.05,32.05,0,1,1-16-27.69V112a8,8,0,0,1,10.3-7.66l40,12A8,8,0,0,1,247.66,126.3ZM192,192a16,16,0,1,0-16,16A16,16,0,0,0,192,192Z"/></symbol><symbol id="play" viewBox="0 0 256 256"><path d="M232.4,114.49,88.32,26.35a16,16,0,0,0-16.2-.3A15.86,15.86,0,0,0,64,39.87V216.13A15.94,15.94,0,0,0,80,232a16.07,16.07,0,0,0,8.36-2.35L232.4,141.51a15.81,15.81,0,0,0,0-27ZM80,215.94V40l143.83,88Z"/></symbol><symbol id="pause" viewBox="0 0 256 256"><path d="M200,32H160a16,16,0,0,0-16,16V208a16,16,0,0,0,16,16h40a16,16,0,0,0,16-16V48A16,16,0,0,0,200,32Zm0,176H160V48h40ZM96,32H56A16,16,0,0,0,40,48V208a16,16,0,0,0,16,16H96a16,16,0,0,0,16-16V48A16,16,0,0,0,96,32Zm0,176H56V48H96Z"/></symbol><symbol id="stop" viewBox="0 0 256 256"><path d="M200,40H56A16,16,0,0,0,40,56V200a16,16,0,0,0,16,16H200a16,16,0,0,0,16-16V56A16,16,0,0,0,200,40Zm0,160H56V56H200V200Z"/></symbol><symbol id="skip-back" viewBox="0 0 256 256"><path d="M199.81,34a16,16,0,0,0-16.24.43L64,109.23V40a8,8,0,0,0-16,0V216a8,8,0,0,0,16,0V146.77l119.57,74.78A15.95,15.95,0,0,0,208,208.12V47.88A15.86,15.86,0,0,0,199.81,34ZM192,208,64.16,128,192,48.07Z"/></symbol><symbol id="skip-forward" viewBox="0 0 256 256"><path d="M200,32a8,8,0,0,0-8,8v69.23L72.43,34.45A15.95,15.95,0,0,0,48,47.88V208.12a16,16,0,0,0,24.43,13.43L192,146.77V216a8,8,0,0,0,16,0V40A8,8,0,0,0,200,32ZM64,207.93V48.05l127.84,80Z"/></symbol><symbol id="speaker-high" viewBox="0 0 256 256"><path d="M155.51,24.81a8,8,0,0,0-8.42.88L77.25,80H32A16,16,0,0,0,16,96v64a16,16,0,0,0,16,16H77.25l69.84,54.31A8,8,0,0,0,160,224V32A8,8,0,0,0,155.51,24.81ZM32,96H72v64H32ZM144,207.64,88,164.09V91.91l56-43.55Zm54-106.08a40,40,0,0,1,0,52.88,8,8,0,0,1-12-10.58,24,24,0,0,0,0-31.72,8,8,0,0,1,12-10.58ZM248,128a79.9,79.9,0,0,1-20.37,53.34,8,8,0,0,1-11.92-10.67,64,64,0,0,0,0-85.33,8,8,0,1,1,11.92-10.67A79.83,79.83,0,0,1,248,128Z"/></symbol><symbol id="plus" viewBox="0 0 256 256"><path d="M224,128a8,8,0,0,1-8,8H136v80a8,8,0,0,1-16,0V136H40a8,8,0,0,1,0-16h80V40a8,8,0,0,1,16,0v80h80A8,8,0,0,1,224,128Z"/></symbol><symbol id="trash" viewBox="0 0 256 256"><path d="M216,48H176V40a24,24,0,0,0-24-24H104A24,24,0,0,0,80,40v8H40a8,8,0,0,0,0,16h8V208a16,16,0,0,0,16,16H192a16,16,0,0,0,16-16V64h8a8,8,0,0,0,0-16ZM96,40a8,8,0,0,1,8-8h48a8,8,0,0,1,8,8v8H96Zm96,168H64V64H192ZM112,104v64a8,8,0,0,1-16,0V104a8,8,0,0,1,16,0Zm48,0v64a8,8,0,0,1-16,0V104a8,8,0,0,1,16,0Z"/></symbol><symbol id="pencil-simple" viewBox="0 0 256 256"><path d="M227.31,73.37,182.63,28.68a16,16,0,0,0-22.63,0L36.69,152A15.86,15.86,0,0,0,32,163.31V208a16,16,0,0,0,16,16H92.69A15.86,15.86,0,0,0,104,219.31L227.31,96a16,16,0,0,0,0-22.63ZM92.69,208H48V163.31l88-88L180.69,120ZM192,108.68,147.31,64l24-24L216,84.68Z"/></symbol><symbol id="arrow-up" viewBox="0 0 256 256"><path d="M205.66,117.66a8,8,0,0,1-11.32,0L136,59.31V216a8,8,0,0,1-16,0V59.31L61.66,117.66a8,8,0,0,1-11.32-11.32l72-72a8,8,0,0,1,11.32,0l72,72A8,8,0,0,1,205.66,117.66Z"/></symbol><symbol id="arrow-down" viewBox="0 0 256 256"><path d="M205.66,149.66l-72,72a8,8,0,0,1-11.32,0l-72-72a8,8,0,0,1,11.32-11.32L120,196.69V40a8,8,0,0,1,16,0V196.69l58.34-58.35a8,8,0,0,1,11.32,11.32Z"/></symbol><symbol id="x" viewBox="0 0 256 256"><path d="M205.66,194.34a8,8,0,0,1-11.32,11.32L128,139.31,61.66,205.66a8,8,0,0,1-11.32-11.32L116.69,128,50.34,61.66A8,8,0,0,1,61.66,50.34L128,116.69l66.34-66.35a8,8,0,0,1,11.32,11.32L139.31,128Z"/></symbol><symbol id="arrow-up-right" viewBox="0 0 256 256"><path d="M200,64V168a8,8,0,0,1-16,0V83.31L69.66,197.66a8,8,0,0,1-11.32-11.32L172.69,72H88a8,8,0,0,1,0-16H192A8,8,0,0,1,200,64Z"/></symbol><symbol id="magnifying-glass" viewBox="0 0 256 256"><path d="M229.66,218.34l-50.07-50.06a88.11,88.11,0,1,0-11.31,11.31l50.06,50.07a8,8,0,0,0,11.32-11.32ZM40,112a72,72,0,1,1,72,72A72.08,72.08,0,0,1,40,112Z"/></symbol><symbol id="upload-simple" viewBox="0 0 256 256"><path d="M224,144v64a8,8,0,0,1-8,8H40a8,8,0,0,1-8-8V144a8,8,0,0,1,16,0v56H208V144a8,8,0,0,1,16,0ZM93.66,77.66,120,51.31V144a8,8,0,0,0,16,0V51.31l26.34,26.35a8,8,0,0,0,11.32-11.32l-40-40a8,8,0,0,0-11.32,0l-40,40A8,8,0,0,0,93.66,77.66Z"/></symbol><symbol id="download-simple" viewBox="0 0 256 256"><path d="M224,144v64a8,8,0,0,1-8,8H40a8,8,0,0,1-8-8V144a8,8,0,0,1,16,0v56H208V144a8,8,0,0,1,16,0Zm-101.66,5.66a8,8,0,0,0,11.32,0l40-40a8,8,0,0,0-11.32-11.32L136,124.69V32a8,8,0,0,0-16,0v92.69L93.66,98.34a8,8,0,0,0-11.32,11.32Z"/></symbol><symbol id="monitor-play" viewBox="0 0 256 256"><path d="M208,40H48A24,24,0,0,0,24,64V176a24,24,0,0,0,24,24H208a24,24,0,0,0,24-24V64A24,24,0,0,0,208,40Zm8,136a8,8,0,0,1-8,8H48a8,8,0,0,1-8-8V64a8,8,0,0,1,8-8H208a8,8,0,0,1,8,8Zm-48,48a8,8,0,0,1-8,8H96a8,8,0,0,1,0-16h64A8,8,0,0,1,168,224Zm-3.56-110.66-48-32A8,8,0,0,0,104,88v64a8,8,0,0,0,12.44,6.66l48-32a8,8,0,0,0,0-13.32ZM120,137.05V103l25.58,17Z"/></symbol><symbol id="sliders-horizontal" viewBox="0 0 256 256"><path d="M40,88H73a32,32,0,0,0,62,0h81a8,8,0,0,0,0-16H135a32,32,0,0,0-62,0H40a8,8,0,0,0,0,16Zm64-24A16,16,0,1,1,88,80,16,16,0,0,1,104,64ZM216,168H199a32,32,0,0,0-62,0H40a8,8,0,0,0,0,16h97a32,32,0,0,0,62,0h17a8,8,0,0,0,0-16Zm-48,24a16,16,0,1,1,16-16A16,16,0,0,1,168,192Z"/></symbol><symbol id="shuffle" viewBox="0 0 256 256"><path d="M237.66,178.34a8,8,0,0,1,0,11.32l-24,24a8,8,0,0,1-11.32-11.32L212.69,192H200.94a72.12,72.12,0,0,1-58.59-30.15l-41.72-58.4A56.1,56.1,0,0,0,55.06,80H32a8,8,0,0,1,0-16H55.06a72.12,72.12,0,0,1,58.59,30.15l41.72,58.4A56.1,56.1,0,0,0,200.94,176h11.75l-10.35-10.34a8,8,0,0,1,11.32-11.32ZM143,107a8,8,0,0,0,11.16-1.86l1.2-1.67A56.1,56.1,0,0,1,200.94,80h11.75L202.34,90.34a8,8,0,0,0,11.32,11.32l24-24a8,8,0,0,0,0-11.32l-24-24a8,8,0,0,0-11.32,11.32L212.69,64H200.94a72.12,72.12,0,0,0-58.59,30.15l-1.2,1.67A8,8,0,0,0,143,107Zm-30,42a8,8,0,0,0-11.16,1.86l-1.2,1.67A56.1,56.1,0,0,1,55.06,176H32a8,8,0,0,0,0,16H55.06a72.12,72.12,0,0,0,58.59-30.15l1.2-1.67A8,8,0,0,0,113,149Z"/></symbol><symbol id="broadcast" viewBox="0 0 256 256"><path d="M128,88a40,40,0,1,0,40,40A40,40,0,0,0,128,88Zm0,64a24,24,0,1,1,24-24A24,24,0,0,1,128,152Zm73.71,7.14a80,80,0,0,1-14.08,22.2,8,8,0,0,1-11.92-10.67,63.95,63.95,0,0,0,0-85.33,8,8,0,1,1,11.92-10.67,80.08,80.08,0,0,1,14.08,84.47ZM69,103.09a64,64,0,0,0,11.26,67.58,8,8,0,0,1-11.92,10.67,79.93,79.93,0,0,1,0-106.67A8,8,0,1,1,80.29,85.34,63.77,63.77,0,0,0,69,103.09ZM248,128a119.58,119.58,0,0,1-34.29,84,8,8,0,1,1-11.42-11.2,103.9,103.9,0,0,0,0-145.56A8,8,0,1,1,213.71,44,119.58,119.58,0,0,1,248,128ZM53.71,200.78A8,8,0,1,1,42.29,212a119.87,119.87,0,0,1,0-168,8,8,0,1,1,11.42,11.2,103.9,103.9,0,0,0,0,145.56Z"/></symbol><symbol id="check" viewBox="0 0 256 256"><path d="M229.66,77.66l-128,128a8,8,0,0,1-11.32,0l-56-56a8,8,0,0,1,11.32-11.32L96,188.69,218.34,66.34a8,8,0,0,1,11.32,11.32Z"/></symbol><symbol id="circle-half" viewBox="0 0 256 256"><path d="M128,24A104,104,0,1,0,232,128,104.11,104.11,0,0,0,128,24Zm8,16.37a86.4,86.4,0,0,1,16,3V212.67a86.4,86.4,0,0,1-16,3Zm32,9.26a87.81,87.81,0,0,1,16,10.54V195.83a87.81,87.81,0,0,1-16,10.54ZM40,128a88.11,88.11,0,0,1,80-87.63V215.63A88.11,88.11,0,0,1,40,128Zm160,50.54V77.46a87.82,87.82,0,0,1,0,101.08Z"/></symbol><symbol id="text-align-left" viewBox="0 0 256 256"><path d="M32,64a8,8,0,0,1,8-8H216a8,8,0,0,1,0,16H40A8,8,0,0,1,32,64Zm8,48H168a8,8,0,0,0,0-16H40a8,8,0,0,0,0,16Zm176,24H40a8,8,0,0,0,0,16H216a8,8,0,0,0,0-16Zm-48,40H40a8,8,0,0,0,0,16H168a8,8,0,0,0,0-16Z"/></symbol><symbol id="link" viewBox="0 0 256 256"><path d="M240,88.23a54.43,54.43,0,0,1-16,37L189.25,160a54.27,54.27,0,0,1-38.63,16h-.05A54.63,54.63,0,0,1,96,119.84a8,8,0,0,1,16,.45A38.62,38.62,0,0,0,150.58,160h0a38.39,38.39,0,0,0,27.31-11.31l34.75-34.75a38.63,38.63,0,0,0-54.63-54.63l-11,11A8,8,0,0,1,135.7,59l11-11A54.65,54.65,0,0,1,224,48,54.86,54.86,0,0,1,240,88.23ZM109,185.66l-11,11A38.41,38.41,0,0,1,70.6,208h0a38.63,38.63,0,0,1-27.29-65.94L78,107.31A38.63,38.63,0,0,1,144,135.71a8,8,0,0,0,16,.45A54.86,54.86,0,0,0,144,96a54.65,54.65,0,0,0-77.27,0L32,130.75A54.62,54.62,0,0,0,70.56,224h0a54.28,54.28,0,0,0,38.64-16l11-11A8,8,0,0,0,109,185.66Z"/></symbol><symbol id="clock" viewBox="0 0 256 256"><path d="M128,24A104,104,0,1,0,232,128,104.11,104.11,0,0,0,128,24Zm0,192a88,88,0,1,1,88-88A88.1,88.1,0,0,1,128,216Zm64-88a8,8,0,0,1-8,8H128a8,8,0,0,1-8-8V72a8,8,0,0,1,16,0v48h48A8,8,0,0,1,192,128Z"/></symbol><symbol id="waveform" viewBox="0 0 256 256"><path d="M56,96v64a8,8,0,0,1-16,0V96a8,8,0,0,1,16,0ZM88,24a8,8,0,0,0-8,8V224a8,8,0,0,0,16,0V32A8,8,0,0,0,88,24Zm40,32a8,8,0,0,0-8,8V192a8,8,0,0,0,16,0V64A8,8,0,0,0,128,56Zm40,32a8,8,0,0,0-8,8v64a8,8,0,0,0,16,0V96A8,8,0,0,0,168,88Zm40-16a8,8,0,0,0-8,8v96a8,8,0,0,0,16,0V80A8,8,0,0,0,208,72Z"/></symbol><symbol id="text-aa" viewBox="0 0 256 256"><path d="M87.24,52.59a8,8,0,0,0-14.48,0l-64,136a8,8,0,1,0,14.48,6.81L39.9,160h80.2l16.66,35.4a8,8,0,1,0,14.48-6.81ZM47.43,144,80,74.79,112.57,144ZM200,96c-12.76,0-22.73,3.47-29.63,10.32a8,8,0,0,0,11.26,11.36c3.8-3.77,10-5.68,18.37-5.68,13.23,0,24,9,24,20v3.22A42.76,42.76,0,0,0,200,128c-22.06,0-40,16.15-40,36s17.94,36,40,36a42.73,42.73,0,0,0,24-7.25,8,8,0,0,0,16-.75V132C240,112.15,222.06,96,200,96Zm0,88c-13.23,0-24-9-24-20s10.77-20,24-20,24,9,24,20S213.23,184,200,184Z"/></symbol><symbol id="arrow-counter-clockwise" viewBox="0 0 256 256"><path d="M224,128a96,96,0,0,1-94.71,96H128A95.38,95.38,0,0,1,62.1,197.8a8,8,0,0,1,11-11.63A80,80,0,1,0,71.43,71.39a3.07,3.07,0,0,1-.26.25L44.59,96H72a8,8,0,0,1,0,16H24a8,8,0,0,1-8-8V56a8,8,0,0,1,16,0V85.8L60.25,60A96,96,0,0,1,224,128Z"/></symbol><symbol id="caret-right" viewBox="0 0 256 256"><path d="M181.66,133.66l-80,80a8,8,0,0,1-11.32-11.32L164.69,128,90.34,53.66a8,8,0,0,1,11.32-11.32l80,80A8,8,0,0,1,181.66,133.66Z"/></symbol></defs></svg>
